<svg width="132" height="23" viewBox="0 0 132 23" fill="none" xmlns="http://www.w3.org/2000/svg">
<path d="M0 22.2009C0.560933 22.2428 1.12758 22.2644 1.69922 22.2644H0V22.2009ZM24 22.2644H1.69922C11.8655 22.2644 20.4552 15.5215 23.2441 6.2644H24V22.2644Z" fill="#6638B6"/>
<path d="M23 8.2644C23 3.84613 26.5817 0.264404 31 0.264404H124C128.418 0.264404 132 3.84613 132 8.2644V22.2644H23V8.2644Z" fill="#6638B6"/>
<path d="M38.3233 16.2644V6.9044H42.7693C44.5048 6.9044 45.7528 7.6974 45.7528 9.2574C45.7528 10.7784 44.7063 11.2139 44.1928 11.3439V11.4739C44.8038 11.5974 46.0323 12.0979 46.0323 13.6839C46.0323 15.3674 44.7388 16.2644 42.9058 16.2644H38.3233ZM42.3533 8.3474H40.3253V10.7914H42.3533C43.2048 10.7914 43.8093 10.4079 43.8028 9.5694C43.8028 8.7309 43.1983 8.3474 42.3533 8.3474ZM42.5158 12.2344H40.3253V14.8214H42.5158C43.3998 14.8214 44.0693 14.4314 44.0693 13.5409C44.0693 12.6439 43.3998 12.2344 42.5158 12.2344ZM47.1974 16.2644V6.9044H53.9964V8.3669H49.1994V10.7329H53.3464V12.2019H49.1994V14.8019H54.1264V16.2644H47.1974ZM55.1376 9.4719C55.1376 7.9964 56.3856 6.7484 58.7906 6.7484C61.1956 6.7484 62.5151 7.9444 62.6321 9.5304V9.7254H60.7536C60.7211 8.5944 59.8891 8.1524 58.8361 8.1524C57.7701 8.1524 57.1006 8.6269 57.1006 9.3679C57.1006 10.1154 57.7051 10.4144 58.7061 10.6224L60.0321 10.8824C61.7936 11.2399 62.8661 11.9744 62.8661 13.5734C62.8661 15.1789 61.6181 16.4204 59.0831 16.4204C56.5546 16.4204 55.0791 15.1789 54.9881 13.5604V13.3654H56.8861C57.0161 14.5029 57.8871 15.0164 59.0636 15.0164C60.2531 15.0164 60.9096 14.5029 60.9096 13.7099C60.9096 12.9234 60.2986 12.6439 59.2131 12.4229L57.8871 12.1564C56.1776 11.8119 55.1376 10.9149 55.1376 9.4719ZM63.2293 8.3864V6.9044H71.5363V8.3864H68.3838V16.2644H66.3818V8.3864H63.2293ZM74.5981 7.0994V6.9044H76.6131L78.9986 14.0674H79.1286L81.5141 6.9044H83.5096V7.0994L80.1556 16.2644H77.9521L74.5981 7.0994ZM84.9595 16.2644H82.9835V16.0694L86.3375 6.9044H88.541L91.895 16.0694V16.2644H89.8995L89.191 14.1779H85.668L84.9595 16.2644ZM87.3645 9.0364L86.1295 12.7089H88.7295L87.4945 9.0364H87.3645ZM92.9893 16.2644V6.9044H94.9913V14.7824H99.4828V16.2644H92.9893ZM100.497 12.8584V6.9044H102.499V12.9819C102.499 14.2039 103.214 14.9124 104.507 14.9124C105.794 14.9124 106.516 14.2039 106.516 12.9819V6.9044H108.511V12.8584C108.511 15.0489 107.101 16.4204 104.507 16.4204C101.959 16.4204 100.497 15.0489 100.497 12.8584ZM110.153 16.2644V6.9044H116.952V8.3669H112.155V10.7329H116.302V12.2019H112.155V14.8019H117.082V16.2644H110.153Z" fill="white"/>
</svg>
