<svg width="17" height="17" viewBox="0 0 17 17" fill="none" xmlns="http://www.w3.org/2000/svg">
<path fill-rule="evenodd" clip-rule="evenodd" d="M9.83182 5.90432C9.40033 5.65535 8.90197 5.52161 8.40361 5.52161C7.90524 5.52161 7.40688 5.65535 6.97539 5.90432C6.54154 6.15584 6.18098 6.5164 5.92946 6.95026C5.67963 7.38485 5.5477 7.87719 5.54675 8.37848C5.54675 8.87727 5.68049 9.37564 5.92946 9.80713C6.17885 10.2386 6.54348 10.6037 6.97539 10.8526C7.4073 11.1016 7.90524 11.2354 8.40361 11.2354C8.90197 11.2354 9.40033 11.102 9.83182 10.8526C10.2633 10.6033 10.6284 10.2386 10.8777 9.80713C11.1277 9.37241 11.2596 8.87991 11.2605 8.37848C11.2605 7.88012 11.1271 7.38175 10.8777 6.95026C10.6262 6.5164 10.2657 6.15584 9.83182 5.90432Z" fill="#CA3432"/>
<path fill-rule="evenodd" clip-rule="evenodd" d="M15.649 4.193C14.9176 2.92585 13.8465 1.85468 12.5797 1.12332C11.313 0.391963 9.84948 0 8.38635 0C6.92323 0 5.46053 0.391963 4.19339 1.12332C2.91999 1.86135 1.86176 2.9196 1.12373 4.193C0.39196 5.46015 0 6.92329 0 8.38642C0 9.84956 0.39196 11.3127 1.12373 12.5798C1.86151 13.8534 2.9198 14.9117 4.19339 15.6495C5.46904 16.3836 6.91459 16.771 8.38635 16.7733C9.84948 16.7733 11.3126 16.3813 12.5797 15.6495C13.8469 14.9182 14.9176 13.847 15.649 12.5798C16.3803 11.3127 16.7723 9.84956 16.7723 8.38642C16.7723 6.92329 16.3803 5.45973 15.649 4.193ZM13.1917 11.1596C12.7053 11.9993 12.0076 12.697 11.1679 13.1834C10.3267 13.667 9.37357 13.9224 8.40318 13.924C7.43884 13.924 6.4745 13.6657 5.63885 13.1834C4.80362 12.701 4.0975 11.9948 3.61512 11.1596C3.13274 10.3244 2.87452 9.3596 2.87452 8.39525C2.87452 7.43048 3.13274 6.46572 3.61512 5.63048C4.0975 4.79525 4.80362 4.0887 5.63885 3.60674C6.47989 3.12292 7.4329 2.86759 8.40318 2.86613C9.36794 2.86613 10.3323 3.12435 11.1679 3.60674C12.0075 4.09324 12.7052 4.79092 13.1917 5.63048C13.6756 6.47163 13.9311 7.42479 13.9327 8.39525C13.9309 9.36555 13.6754 10.3185 13.1917 11.1596Z" fill="#CA3432"/>
</svg> 