<svg xmlns="http://www.w3.org/2000/svg" width="24" height="24" viewBox="0 0 24 24" fill="none">
<path d="M8.22497 13.132L3.44897 15.349C3.22159 15.5571 3.08139 15.8435 3.05653 16.1507C3.03167 16.4579 3.124 16.7631 3.31497 17.005C3.69897 17.66 4.37097 17.973 4.81497 17.711L9.13397 14.7C9.25833 14.5517 9.32903 14.3658 9.33466 14.1724C9.34028 13.9789 9.2805 13.7893 9.16497 13.634C9.08841 13.4562 8.95368 13.3096 8.78288 13.2184C8.61208 13.1272 8.41536 13.0967 8.22497 13.132ZM15.777 13.133C15.477 13.015 15.077 13.233 14.835 13.638C14.7219 13.7929 14.6631 13.9807 14.6678 14.1724C14.6725 14.3641 14.7404 14.5489 14.861 14.698L19.176 17.716C19.624 17.972 20.299 17.661 20.683 17.005C21.067 16.349 20.992 15.605 20.548 15.349L15.777 13.133ZM12 15.271C11.8084 15.248 11.6147 15.2904 11.4502 15.3913C11.2858 15.4922 11.1602 15.6458 11.094 15.827L10.628 21.062C10.628 21.58 11.234 22 12 22C12.766 22 13.371 21.58 13.371 21.062L12.909 15.827C12.842 15.6456 12.7159 15.4921 12.551 15.3913C12.386 15.2904 12.1919 15.248 12 15.271ZM14.835 10.367C14.9142 10.5436 15.0494 10.6892 15.2197 10.7813C15.3899 10.8733 15.5858 10.9066 15.777 10.876L20.553 8.655C20.997 8.393 21.063 7.66 20.688 7.001C20.313 6.342 19.629 6.031 19.181 6.287L14.866 9.3C14.7446 9.45069 14.6763 9.63717 14.6716 9.83059C14.6669 10.024 14.7261 10.2136 14.84 10.37L14.835 10.367ZM4.81897 6.289C4.37097 6.027 3.69897 6.339 3.31897 6.999C3.128 7.24091 3.03567 7.54613 3.06053 7.85333C3.08539 8.16053 3.22559 8.44694 3.45297 8.655L8.22497 10.87C8.41512 10.9054 8.61166 10.8753 8.78243 10.7844C8.95319 10.6936 9.08807 10.5475 9.16497 10.37C9.28025 10.2148 9.33989 10.0253 9.33426 9.83212C9.32864 9.6389 9.25808 9.4532 9.13397 9.305L4.81897 6.289ZM12 2C11.234 2 10.628 2.424 10.628 2.943L11.1 8.177C11.166 8.35712 11.2906 8.50985 11.4538 8.61067C11.617 8.7115 11.8094 8.75458 12 8.733C12.1919 8.75598 12.386 8.71362 12.551 8.61274C12.7159 8.51187 12.842 8.35836 12.909 8.177L13.371 2.943C13.372 2.424 12.762 2 12 2Z" fill="currentcolor"/>
</svg>