<svg xmlns="http://www.w3.org/2000/svg" width="12" height="14" viewBox="0 0 12 14" fill="none">
<path d="M9.49999 4.9V3.5C9.49999 1.54 7.95999 0 5.99999 0C4.03999 0 2.49999 1.54 2.49999 3.5V4.9C1.30999 4.9 0.399994 5.81 0.399994 7V11.9C0.399994 13.09 1.30999 14 2.49999 14H9.49999C10.69 14 11.6 13.09 11.6 11.9V7C11.6 5.81 10.69 4.9 9.49999 4.9ZM3.89999 3.5C3.89999 2.31 4.80999 1.4 5.99999 1.4C7.18999 1.4 8.09999 2.31 8.09999 3.5V4.9H3.89999V3.5ZM6.69999 10.5C6.69999 10.92 6.41999 11.2 5.99999 11.2C5.57999 11.2 5.29999 10.92 5.29999 10.5V8.4C5.29999 7.98 5.57999 7.7 5.99999 7.7C6.41999 7.7 6.69999 7.98 6.69999 8.4V10.5Z" fill="white"/>
</svg>