<svg xmlns="http://www.w3.org/2000/svg" width="24" height="24" viewBox="0 0 24 24" fill="none">
<path d="M6.93313 5.27778H20L18.2222 11.5H7.89041M19.1111 15.0556H8.44444L6.66667 3.5H4M9.33333 18.6111C9.33333 19.102 8.93536 19.5 8.44444 19.5C7.95353 19.5 7.55556 19.102 7.55556 18.6111C7.55556 18.1202 7.95353 17.7222 8.44444 17.7222C8.93536 17.7222 9.33333 18.1202 9.33333 18.6111ZM19.1111 18.6111C19.1111 19.102 18.7132 19.5 18.2222 19.5C17.7313 19.5 17.3333 19.102 17.3333 18.6111C17.3333 18.1202 17.7313 17.7222 18.2222 17.7222C18.7132 17.7222 19.1111 18.1202 19.1111 18.6111Z" stroke="#6638B6" stroke-width="1.2" stroke-linecap="round" stroke-linejoin="round"/>
</svg>