<svg width="81" height="20" viewBox="0 0 81 20" fill="none" xmlns="http://www.w3.org/2000/svg">
<path d="M70.6472 6.89615C71.0818 6.89615 71.4394 6.66468 71.4877 6.36562L71.9167 1.39468C71.9167 0.903353 71.3549 0.5 70.6486 0.5C69.9429 0.5 69.3816 0.903351 69.3816 1.39477L69.8104 6.36562C69.8576 6.66459 70.2153 6.89615 70.6487 6.89615H70.6472ZM68.0249 8.44881C68.2429 8.06373 68.2265 7.63093 67.9967 7.43866L64.0087 4.57254C63.5941 4.32652 62.9724 4.62264 62.6196 5.24958C62.2655 5.87571 62.3283 6.57502 62.7418 6.82112L67.1577 8.92763C67.4337 9.03246 67.8101 8.8307 68.0263 8.44588L68.0249 8.44881ZM73.2718 8.44615C73.4894 8.83096 73.8639 9.03282 74.1402 8.9279L78.5561 6.82139C78.9722 6.57537 79.0313 5.87598 78.6806 5.24985C78.326 4.62353 77.7032 4.32678 77.2897 4.5728L73.3014 7.43892C73.0734 7.63093 73.0564 8.06408 73.2732 8.44908L73.2718 8.44615ZM70.6472 13.1056C71.0818 13.1056 71.4394 13.3351 71.4877 13.6345L71.9167 18.6047C71.9167 19.0975 71.3549 19.5 70.6486 19.5C69.9429 19.5 69.3816 19.0975 69.3816 18.6047L69.8104 13.6345C69.8576 13.3351 70.2153 13.1056 70.6487 13.1056H70.6472ZM73.2718 11.5526C73.4894 11.1667 73.8639 10.9667 74.1402 11.0727L78.5561 13.1778C78.9722 13.4241 79.0313 14.1241 78.6806 14.7508C78.326 15.375 77.7032 15.6726 77.2897 15.4269L73.3014 12.5635C73.0734 12.37 73.0564 11.9365 73.2732 11.5518H73.2715M68.0249 11.5521C68.2429 11.9365 68.2265 12.37 67.9967 12.5638L64.0087 15.4272C63.5941 15.6729 62.9724 15.3753 62.6196 14.751C62.2655 14.1244 62.3283 13.4244 62.7418 13.1781L67.1577 11.073C67.4337 10.9669 67.8101 11.167 68.0263 11.553H68.0249" fill="#FDBB30"/>
<path d="M44.658 12.9511C44.658 13.1084 44.6445 13.2707 44.6029 13.4132C44.4305 14.0051 43.8392 14.5056 43.0995 14.5056C42.4827 14.5056 41.9929 14.1425 41.9929 13.3755C41.9929 12.2017 43.2394 11.8775 44.6583 11.8856L44.658 12.951V12.9511ZM46.8836 10.9055C46.8836 8.96987 46.0857 7.2667 43.3895 7.2667C42.0055 7.2667 40.9071 7.66963 40.3075 8.02874L40.7466 9.58482C41.2946 9.22626 42.1679 8.92944 42.9943 8.92944C44.3619 8.9255 44.5859 9.73217 44.5859 10.2484V10.3706C41.6048 10.3661 39.7203 11.436 39.7203 13.6155C39.7203 14.9473 40.6801 16.1947 42.3485 16.1947C43.3737 16.1947 44.2324 15.7705 44.7462 15.0905H44.797C44.797 15.0905 45.137 16.567 47.0141 16.002C46.9162 15.388 46.884 14.7325 46.884 13.9443L46.8837 10.9055M0.43457 4.63074C0.43457 4.63074 2.38266 12.9045 2.69374 14.2473C3.05662 15.8146 3.71063 16.3916 5.59536 16.002L6.81169 10.8726C7.12012 9.5979 7.32654 8.68905 7.52527 7.39366H7.55987C7.69939 8.70278 7.89733 9.60183 8.15114 10.8768C8.15114 10.8768 8.64603 13.2056 8.89993 14.4284C9.15408 15.6508 9.86148 16.4217 11.7078 16.002L14.6063 4.63037H12.2668L11.2768 9.54713C11.0107 10.9777 10.7694 12.0968 10.5832 13.4053H10.5501C10.3809 12.1084 10.1655 11.0349 9.8952 9.6407L8.86533 4.63037H6.42737L5.32514 9.51438C5.01318 10.9989 4.72064 12.1972 4.53532 13.4621H4.50161C4.31134 12.271 4.05807 10.7644 3.78397 9.32806C3.78397 9.32806 3.1296 5.83457 2.89945 4.63037L0.43457 4.63074ZM19.0316 12.9511C19.0316 13.1084 19.0181 13.2707 18.9759 13.4132C18.8038 14.0051 18.2122 14.5056 17.4725 14.5056C16.8556 14.5056 16.3665 14.1425 16.3665 13.3755C16.3665 12.2017 17.6126 11.8775 19.0319 11.8856L19.0316 12.951V12.9511ZM21.257 10.9055C21.257 8.96987 20.459 7.2667 17.7634 7.2667C16.379 7.2667 15.2797 7.66963 14.6805 8.02874L15.1191 9.58482C15.6669 9.22626 16.5402 8.92944 17.367 8.92944C18.7355 8.9255 18.9595 9.73217 18.9595 10.2484V10.3706C15.9771 10.3661 14.0935 11.436 14.0935 13.6155C14.0935 14.9473 15.0528 16.1947 16.72 16.1947C17.7466 16.1947 18.6047 15.7705 19.1192 15.0905H19.1694C19.1694 15.0905 19.5103 16.567 21.387 16.002C21.2889 15.388 21.257 14.7325 21.257 13.9443V10.9055ZM24.971 13.5882V4.63074H22.7427V16.0024H24.971V13.5882ZM54.121 4.63074V13.0194C54.121 14.1765 54.3315 14.9863 54.7802 15.4819C55.1735 15.9151 55.8195 16.1956 56.5944 16.1956C57.2534 16.1956 57.9013 16.0652 58.2071 15.9477L58.1783 14.1434C57.9508 14.201 57.6896 14.2477 57.332 14.2477C56.5727 14.2477 56.3188 13.7435 56.3188 12.7052V9.49554H58.2593V7.31948H56.3188V4.63074H54.121ZM48.3695 7.45961V16.0024H50.6681V11.6283C50.6681 11.3919 50.6819 11.1859 50.718 10.9975C50.888 10.0808 51.564 9.49554 52.535 9.49554C52.8012 9.49554 52.9917 9.52554 53.1981 9.55591V7.31948C53.0249 7.28372 52.9073 7.26698 52.6918 7.26698C51.834 7.26698 50.8581 7.84068 50.4485 9.07131H50.3864V7.45961H48.3695ZM26.5312 7.45961V16.0024H28.7707V10.9929C28.7707 10.7578 28.7974 10.5092 28.8759 10.2937C29.0615 9.78934 29.5144 9.19863 30.2371 9.19863C31.1412 9.19863 31.5634 9.99048 31.5634 11.1333V16.0018H33.8011V10.9312C33.8011 10.707 33.8307 10.4366 33.8946 10.2388C34.0784 9.66476 34.5662 9.19799 35.2381 9.19799C36.1543 9.19799 36.594 9.97594 36.594 11.3211V16.0015H38.8332V10.9698C38.8332 8.3165 37.5333 7.26616 36.0657 7.26616C35.4164 7.26616 34.9033 7.43474 34.4393 7.72945C34.0497 7.97825 33.7002 8.33077 33.3953 8.79415H33.3622C33.0084 7.87351 32.1757 7.26661 31.0907 7.26661C29.6968 7.26661 29.0703 7.99901 28.6903 8.62009H28.657V7.45934H26.5312" fill="white"/>
<path d="M80.1072 15.7597H80.1394C80.1822 15.7597 80.2097 15.7415 80.2097 15.7145C80.2097 15.6837 80.1839 15.667 80.1442 15.667C80.1305 15.667 80.1165 15.6699 80.1073 15.6699V15.7605V15.7596L80.1072 15.7597ZM80.1022 15.9779H79.9886V15.5971C80.0144 15.5919 80.0745 15.5826 80.1515 15.5826C80.2351 15.5826 80.2726 15.5947 80.3001 15.6138C80.3232 15.6304 80.3401 15.6589 80.3401 15.6972C80.3401 15.7363 80.3051 15.7694 80.2536 15.7839V15.7887C80.2956 15.8003 80.3185 15.8316 80.3306 15.8866C80.342 15.9416 80.3491 15.964 80.3563 15.9781H80.2276C80.2164 15.964 80.2097 15.9303 80.2021 15.8967C80.1949 15.8581 80.1772 15.8388 80.1392 15.8388H80.102L80.1022 15.9779ZM80.1492 15.473C79.9861 15.473 79.863 15.6097 79.863 15.7841C79.863 15.9539 79.9864 16.0924 80.1537 16.0924C80.3216 16.0953 80.445 15.954 80.445 15.7813C80.445 15.6094 80.3216 15.473 80.1517 15.473H80.1492ZM80.1565 15.3696C80.384 15.3696 80.5653 15.5538 80.5653 15.7812C80.5653 16.0112 80.384 16.1957 80.1534 16.1957C79.9229 16.1957 79.7393 16.011 79.7393 15.7813C79.7393 15.5538 79.9231 15.3697 80.1534 15.3697H80.156" fill="#FDBB30"/>
</svg>
