<svg width="19" height="19" viewBox="0 0 19 19" fill="none">
  <path d="M9.5 0.23584C14.4706 0.23584 18.5 4.26528 18.5 9.23584C18.5 14.2064 14.4706 18.2358 9.5 18.2358C4.52944 18.2358 0.5 14.2064 0.5 9.23584C0.5 4.26528 4.52944 0.23584 9.5 0.23584ZM9.5 1.73584C5.35786 1.73584 2 5.0937 2 9.23584C2 13.3779 5.35786 16.7358 9.5 16.7358C13.6421 16.7358 17 13.3779 17 9.23584C17 5.0937 13.6421 1.73584 9.5 1.73584ZM9.5 9.95557C11.8204 9.95557 13.9998 11.4871 14 13.7056H12.5C12.4998 12.6106 11.3215 11.4556 9.5 11.4556C7.67846 11.4556 6.50021 12.6106 6.5 13.7056H5C5.00019 11.4871 7.17964 9.95557 9.5 9.95557ZM6.875 5.48584C7.49632 5.48584 8 5.98952 8 6.61084C8 7.23216 7.49632 7.73584 6.875 7.73584C6.25368 7.73584 5.75 7.23216 5.75 6.61084C5.75 5.98952 6.25368 5.48584 6.875 5.48584ZM12.125 5.48584C12.7463 5.48584 13.25 5.98952 13.25 6.61084C13.25 7.23216 12.7463 7.73584 12.125 7.73584C11.5037 7.73584 11 7.23216 11 6.61084C11 5.98952 11.5037 5.48584 12.125 5.48584Z" fill="currentcolor"/>
</svg>