<svg width="11" height="13" viewBox="0 0 11 13" fill="none">
  <path d="M10.5 1.66577V6.18042C10.5 9.68292 6.5175 12.1658 5.25 12.1658C3.9825 12.1658 0 9.68292 0 6.18042V1.66577L5.25 0.165771L10.5 1.66577ZM8.14844 4.06226C7.95325 3.86711 7.63667 3.86723 7.44141 4.06226L4.29492 7.20874L3.05762 5.97144C2.86243 5.77625 2.54587 5.7764 2.35059 5.97144C2.15537 6.1667 2.15534 6.48322 2.35059 6.67847L3.94141 8.26929C4.13666 8.46449 4.45319 8.46449 4.64844 8.26929L8.14844 4.76929C8.34346 4.57402 8.34358 4.25745 8.14844 4.06226Z" fill="currentcolor"/>
</svg>