<svg class="icon walmart" width="77" height="19" viewBox="0 0 77 19" fill="none">
    <path d="M67.0601 6.72553C67.4718 6.72553 67.8107 6.50624 67.8564 6.22292L68.2629 1.51361C68.2629 1.04814 67.7306 0.666016 67.0615 0.666016C66.3929 0.666016 65.8612 1.04814 65.8612 1.51369L66.2674 6.22292C66.3121 6.50615 66.6509 6.72553 67.0615 6.72553H67.0601ZM64.5759 8.19647C64.7824 7.83165 64.7668 7.42164 64.5492 7.23948L60.7711 4.52421C60.3783 4.29114 59.7893 4.57168 59.4551 5.16562C59.1197 5.7588 59.1791 6.42129 59.5709 6.65445L63.7543 8.65009C64.0158 8.7494 64.3724 8.55826 64.5772 8.19369L64.5759 8.19647ZM69.5466 8.19394C69.7528 8.55851 70.1075 8.74974 70.3693 8.65034L74.5527 6.6547C74.9469 6.42163 75.0029 5.75905 74.6706 5.16587C74.3347 4.57252 73.7447 4.29139 73.353 4.52446L69.5746 7.23973C69.3586 7.42163 69.3426 7.83199 69.5479 8.19672L69.5466 8.19394ZM67.0601 12.6082C67.4718 12.6082 67.8107 12.8256 67.8564 13.1092L68.2629 17.8178C68.2629 18.2847 67.7306 18.666 67.0615 18.666C66.3929 18.666 65.8612 18.2847 65.8612 17.8178L66.2674 13.1092C66.3121 12.8256 66.6509 12.6082 67.0615 12.6082H67.0601ZM69.5466 11.1369C69.7528 10.7713 70.1075 10.5818 70.3693 10.6823L74.5527 12.6766C74.9469 12.9099 75.0029 13.5731 74.6706 14.1668C74.3347 14.7582 73.7447 15.0401 73.353 14.8073L69.5746 12.0946C69.3586 11.9112 69.3426 11.5006 69.5479 11.1362H69.5463M64.5759 11.1364C64.7824 11.5006 64.7668 11.9112 64.5492 12.0949L60.7711 14.8076C60.3783 15.0403 59.7893 14.7584 59.4551 14.167C59.1197 13.5733 59.1791 12.9102 59.5709 12.6768L63.7543 10.6825C64.0158 10.582 64.3724 10.7716 64.5772 11.1372H64.5759" fill="#FDBB30"/>
    <path class="text" d="M42.4386 12.4614C42.4386 12.6104 42.4258 12.7642 42.3864 12.8992C42.223 13.4599 41.6629 13.9341 40.9621 13.9341C40.3778 13.9341 39.9137 13.5901 39.9137 12.8635C39.9137 11.7514 41.0946 11.4443 42.4389 11.452L42.4386 12.4613V12.4614ZM44.547 10.5234C44.547 8.68971 43.7911 7.07619 41.2368 7.07619C39.9257 7.07619 38.8851 7.45791 38.3171 7.79812L38.7331 9.2723C39.2522 8.93261 40.0795 8.65141 40.8625 8.65141C42.1581 8.64769 42.3702 9.4119 42.3702 9.90098V10.0168C39.546 10.0124 37.7608 11.026 37.7608 13.0909C37.7608 14.3526 38.67 15.5343 40.2506 15.5343C41.2219 15.5343 42.0353 15.1325 42.5222 14.4882H42.5702C42.5702 14.4882 42.8924 15.887 44.6707 15.3518C44.5779 14.7701 44.5474 14.1491 44.5474 13.4024L44.5471 10.5234M0.542969 4.57896C0.542969 4.57896 2.38852 12.4173 2.68322 13.6894C3.027 15.1742 3.64658 15.7208 5.43211 15.3518L6.58441 10.4923C6.87661 9.28469 7.07216 8.42368 7.26043 7.19647H7.2932C7.42538 8.43668 7.6129 9.28842 7.85335 10.4963C7.85335 10.4963 8.3222 12.7025 8.56272 13.861C8.8035 15.019 9.47367 15.7493 11.2228 15.3518L13.9687 4.57861H11.7524L10.8145 9.2366C10.5624 10.5919 10.3338 11.6521 10.1574 12.8917H10.126C9.96576 11.663 9.76168 10.646 9.50561 9.32524L8.52995 4.57861H6.22032L5.17611 9.20557C4.88057 10.612 4.60343 11.7472 4.42786 12.9455H4.39592C4.21567 11.8171 3.97573 10.3898 3.71606 9.02906C3.71606 9.02906 3.09614 5.71943 2.8781 4.57861L0.542969 4.57896ZM18.1611 12.4614C18.1611 12.6104 18.1483 12.7642 18.1083 12.8992C17.9453 13.4599 17.3848 13.9341 16.6841 13.9341C16.0997 13.9341 15.6363 13.5901 15.6363 12.8635C15.6363 11.7514 16.8168 11.4443 18.1613 11.452L18.1611 12.4613V12.4614ZM20.2693 10.5234C20.2693 8.68971 19.5134 7.07619 16.9596 7.07619C15.6481 7.07619 14.6067 7.45791 14.039 7.79812L14.4545 9.2723C14.9735 8.93261 15.8009 8.65141 16.5841 8.65141C17.8806 8.64769 18.0928 9.4119 18.0928 9.90098V10.0168C15.2674 10.0124 13.483 11.026 13.483 13.0909C13.483 14.3526 14.3917 15.5343 15.9712 15.5343C16.9437 15.5343 17.7567 15.1325 18.2441 14.4882H18.2916C18.2916 14.4882 18.6146 15.887 20.3925 15.3518C20.2996 14.7701 20.2693 14.1491 20.2693 13.4024V10.5234ZM23.7879 13.0649V4.57896H21.6769V15.3521H23.7879V13.0649ZM51.4035 4.57896V12.5261C51.4035 13.6223 51.6028 14.3895 52.028 14.859C52.4005 15.2695 53.0126 15.5351 53.7466 15.5351C54.371 15.5351 54.9848 15.4117 55.2745 15.3003L55.2472 13.5909C55.0317 13.6455 54.7842 13.6897 54.4454 13.6897C53.7261 13.6897 53.4856 13.2121 53.4856 12.2285V9.18772H55.3239V7.12619H53.4856V4.57896H51.4035ZM45.9547 7.25895V15.3521H48.1323V11.2083C48.1323 10.9843 48.1453 10.7891 48.1795 10.6106C48.3406 9.74214 48.981 9.18772 49.9009 9.18772C50.1531 9.18772 50.3336 9.21615 50.5291 9.24492V7.12619C50.365 7.09231 50.2536 7.07645 50.0495 7.07645C49.2369 7.07645 48.3123 7.61995 47.9243 8.78582H47.8654V7.25895H45.9547ZM25.266 7.25895V15.3521H27.3876V10.6063C27.3876 10.3836 27.4128 10.148 27.4872 9.94388C27.663 9.46606 28.0921 8.90644 28.7767 8.90644C29.6332 8.90644 30.0332 9.65661 30.0332 10.7393V15.3515H32.1531V10.5479C32.1531 10.3354 32.1811 10.0792 32.2418 9.89188C32.4158 9.34804 32.878 8.90583 33.5145 8.90583C34.3824 8.90583 34.799 9.64284 34.799 10.9172V15.3513H36.9204V10.5843C36.9204 8.07074 35.6889 7.07567 34.2986 7.07567C33.6834 7.07567 33.1973 7.23538 32.7578 7.51458C32.3887 7.75029 32.0576 8.08425 31.7687 8.52325H31.7374C31.4021 7.65106 30.6133 7.0761 29.5854 7.0761C28.2649 7.0761 27.6714 7.76996 27.3114 8.35835H27.2798V7.25869H25.266" fill="currentcolor"/>
    <path d="M76.0224 15.123H76.053C76.0935 15.123 76.1195 15.1057 76.1195 15.0801C76.1195 15.051 76.0951 15.0351 76.0574 15.0351C76.0445 15.0351 76.0312 15.0378 76.0225 15.0378V15.1237V15.1229L76.0224 15.123ZM76.0177 15.3297H75.91V14.9689C75.9345 14.964 75.9914 14.9552 76.0644 14.9552C76.1436 14.9552 76.1791 14.9667 76.2051 14.9847C76.2271 15.0005 76.243 15.0274 76.243 15.0638C76.243 15.1008 76.2099 15.1322 76.1611 15.1459V15.1505C76.2009 15.1614 76.2226 15.1911 76.234 15.2432C76.2449 15.2953 76.2516 15.3165 76.2584 15.3299H76.1364C76.1258 15.3165 76.1195 15.2846 76.1123 15.2527C76.1055 15.2162 76.0887 15.1979 76.0527 15.1979H76.0174L76.0177 15.3297ZM76.0622 14.8513C75.9076 14.8513 75.7911 14.9809 75.7911 15.146C75.7911 15.3069 75.908 15.4382 76.0664 15.4382C76.2256 15.4409 76.3425 15.307 76.3425 15.1434C76.3425 14.9806 76.2256 14.8513 76.0646 14.8513H76.0622ZM76.0692 14.7534C76.2846 14.7534 76.4564 14.9279 76.4564 15.1433C76.4564 15.3613 76.2846 15.536 76.0662 15.536C75.8478 15.536 75.6738 15.361 75.6738 15.1434C75.6738 14.9279 75.848 14.7535 76.0662 14.7535H76.0686" fill="#FDBB30"/>
</svg>