<svg width="19" height="19" viewBox="0 0 19 19" fill="none">
  <path fill-rule="evenodd" clip-rule="evenodd" d="M17.46 9.73584C17.46 13.8779 14.1021 17.2358 9.95996 17.2358C5.81782 17.2358 2.45996 13.8779 2.45996 9.73584C2.45996 5.5937 5.81782 2.23584 9.95996 2.23584C14.1021 2.23584 17.46 5.5937 17.46 9.73584ZM18.96 9.73584C18.96 14.7064 14.9306 18.7358 9.95996 18.7358C4.9894 18.7358 0.959961 14.7064 0.959961 9.73584C0.959961 4.76528 4.9894 0.73584 9.95996 0.73584C14.9306 0.73584 18.96 4.76528 18.96 9.73584ZM7.33496 8.23584C7.95628 8.23584 8.45996 7.73216 8.45996 7.11084C8.45996 6.48952 7.95628 5.98584 7.33496 5.98584C6.71364 5.98584 6.20996 6.48952 6.20996 7.11084C6.20996 7.73216 6.71364 8.23584 7.33496 8.23584ZM13.71 7.11084C13.71 7.73216 13.2063 8.23584 12.585 8.23584C11.9637 8.23584 11.46 7.73216 11.46 7.11084C11.46 6.48952 11.9637 5.98584 12.585 5.98584C13.2063 5.98584 13.71 6.48952 13.71 7.11084ZM9.95996 12.7358C8.13826 12.7358 6.95996 11.5809 6.95996 10.4858H5.45996C5.45996 12.7044 7.6395 14.2358 9.95996 14.2358C12.2805 14.2358 14.46 12.7044 14.46 10.4858H12.96C12.96 11.5809 11.7817 12.7358 9.95996 12.7358Z" fill="currentcolor"/>
</svg>