<svg class="icon instagram" width="14" height="15" viewBox="0 0 14 15" fill="none">
    <path d="M7 1.92656C8.87031 1.92656 9.0918 1.93477 9.82734 1.96758C10.5109 1.99766 10.8801 2.1125 11.1262 2.2082C11.4516 2.33398 11.6867 2.48711 11.9301 2.73047C12.1762 2.97656 12.3266 3.20898 12.4523 3.53437C12.548 3.78047 12.6629 4.15234 12.693 4.8332C12.7258 5.57148 12.734 5.79297 12.734 7.66055C12.734 9.53086 12.7258 9.75234 12.693 10.4879C12.6629 11.1715 12.548 11.5406 12.4523 11.7867C12.3266 12.1121 12.1734 12.3473 11.9301 12.5906C11.684 12.8367 11.4516 12.9871 11.1262 13.1129C10.8801 13.2086 10.5082 13.3234 9.82734 13.3535C9.08906 13.3863 8.86758 13.3945 7 13.3945C5.12969 13.3945 4.9082 13.3863 4.17266 13.3535C3.48906 13.3234 3.11992 13.2086 2.87383 13.1129C2.54844 12.9871 2.31328 12.834 2.06992 12.5906C1.82383 12.3445 1.67344 12.1121 1.54766 11.7867C1.45195 11.5406 1.33711 11.1688 1.30703 10.4879C1.27422 9.74961 1.26602 9.52812 1.26602 7.66055C1.26602 5.79023 1.27422 5.56875 1.30703 4.8332C1.33711 4.14961 1.45195 3.78047 1.54766 3.53437C1.67344 3.20898 1.82656 2.97383 2.06992 2.73047C2.31602 2.48437 2.54844 2.33398 2.87383 2.2082C3.11992 2.1125 3.4918 1.99766 4.17266 1.96758C4.9082 1.93477 5.12969 1.92656 7 1.92656ZM7 0.666016C5.09961 0.666016 4.86172 0.674219 4.11523 0.707031C3.37148 0.739844 2.86016 0.860156 2.41719 1.03242C1.95508 1.21289 1.56406 1.45078 1.17578 1.8418C0.784766 2.23008 0.546875 2.62109 0.366406 3.08047C0.194141 3.52617 0.0738281 4.03477 0.0410156 4.77852C0.00820313 5.52773 0 5.76562 0 7.66602C0 9.56641 0.00820313 9.8043 0.0410156 10.5508C0.0738281 11.2945 0.194141 11.8059 0.366406 12.2488C0.546875 12.7109 0.784766 13.102 1.17578 13.4902C1.56406 13.8785 1.95508 14.1191 2.41445 14.2969C2.86016 14.4691 3.36875 14.5895 4.1125 14.6223C4.85898 14.6551 5.09687 14.6633 6.99727 14.6633C8.89766 14.6633 9.13555 14.6551 9.88203 14.6223C10.6258 14.5895 11.1371 14.4691 11.5801 14.2969C12.0395 14.1191 12.4305 13.8785 12.8187 13.4902C13.207 13.102 13.4477 12.7109 13.6254 12.2516C13.7977 11.8059 13.918 11.2973 13.9508 10.5535C13.9836 9.80703 13.9918 9.56914 13.9918 7.66875C13.9918 5.76836 13.9836 5.53047 13.9508 4.78398C13.918 4.04023 13.7977 3.52891 13.6254 3.08594C13.4531 2.62109 13.2152 2.23008 12.8242 1.8418C12.4359 1.45352 12.0449 1.21289 11.5855 1.03516C11.1398 0.862891 10.6313 0.742578 9.8875 0.709766C9.13828 0.674219 8.90039 0.666016 7 0.666016Z" fill="#B5B5F5"/>
    <path d="M7 4.07031C5.01484 4.07031 3.4043 5.68086 3.4043 7.66602C3.4043 9.65117 5.01484 11.2617 7 11.2617C8.98516 11.2617 10.5957 9.65117 10.5957 7.66602C10.5957 5.68086 8.98516 4.07031 7 4.07031ZM7 9.99844C5.71211 9.99844 4.66758 8.95391 4.66758 7.66602C4.66758 6.37812 5.71211 5.33359 7 5.33359C8.28789 5.33359 9.33242 6.37812 9.33242 7.66602C9.33242 8.95391 8.28789 9.99844 7 9.99844Z" fill="#B5B5F5"/>
    <path d="M11.5773 3.92832C11.5773 4.39317 11.2 4.76778 10.7379 4.76778C10.273 4.76778 9.89844 4.39043 9.89844 3.92832C9.89844 3.46348 10.2758 3.08887 10.7379 3.08887C11.2 3.08887 11.5773 3.46621 11.5773 3.92832Z" fill="#B5B5F5"/>
</svg>