<svg width="31" height="26" viewBox="0 0 31 26" fill="none" xmlns="http://www.w3.org/2000/svg">
<path d="M22.501 1.2207C26.5793 1.22077 29.8856 4.52616 29.8857 8.60449C29.8857 10.1401 29.4151 11.5667 28.6123 12.748L28.6113 12.75C28.6105 12.7513 28.6089 12.7536 28.6074 12.7559C28.6046 12.7603 28.6008 12.7666 28.5957 12.7744C28.5852 12.7905 28.5699 12.8134 28.5508 12.8418C28.5124 12.8989 28.4571 12.9791 28.3896 13.0713C28.2563 13.2535 28.0678 13.4938 27.8584 13.7031L27.8535 13.708C27.8527 13.7088 27.8514 13.7091 27.8506 13.71C27.8496 13.7109 27.8487 13.7128 27.8477 13.7139L27.8447 13.7168C27.8436 13.7179 27.842 13.7186 27.8408 13.7197C27.8397 13.7208 27.8391 13.7225 27.8379 13.7236L27.834 13.7275C27.8327 13.7289 27.8305 13.7301 27.8291 13.7314C27.8277 13.7328 27.8267 13.7349 27.8252 13.7363L27.7822 13.7793C27.7801 13.7814 27.7775 13.783 27.7754 13.7852C27.7733 13.7872 27.7717 13.7898 27.7695 13.792L27.6836 13.8779C27.6806 13.8809 27.6769 13.8837 27.6738 13.8867C27.6708 13.8897 27.6681 13.8934 27.665 13.8965C27.662 13.8995 27.6584 13.9021 27.6553 13.9053L27.6357 13.9248C27.6324 13.9281 27.6294 13.9322 27.626 13.9355L27.5273 14.0342C27.5234 14.0381 27.5186 14.0419 27.5146 14.0459C27.5106 14.0499 27.507 14.0545 27.5029 14.0586L27.4902 14.0713C27.4862 14.0753 27.4816 14.0789 27.4775 14.083L27.4648 14.0957C27.4606 14.1 27.4565 14.105 27.4521 14.1094L27.4258 14.1357C27.4214 14.1401 27.4165 14.144 27.4121 14.1484L27.3848 14.1758C27.3801 14.1804 27.3758 14.1857 27.3711 14.1904L27.2988 14.2627C27.2939 14.2676 27.2882 14.2723 27.2832 14.2773C27.2782 14.2823 27.2736 14.2879 27.2686 14.293L27.124 14.4375C27.1184 14.4431 27.1121 14.4484 27.1064 14.4541C27.1008 14.4597 27.0955 14.466 27.0898 14.4717C27.0842 14.4773 27.078 14.4826 27.0723 14.4883C27.0666 14.494 27.0614 14.5001 27.0557 14.5059L27.0205 14.541C27.0146 14.5469 27.0079 14.5526 27.002 14.5586C26.996 14.5646 26.9904 14.5711 26.9844 14.5771C26.9784 14.5831 26.9719 14.5887 26.9658 14.5947C26.9598 14.6007 26.9543 14.6073 26.9482 14.6133L26.9111 14.6504C26.9049 14.6566 26.8979 14.6627 26.8916 14.6689C26.8853 14.6752 26.8794 14.6821 26.873 14.6885C26.8668 14.6948 26.8599 14.7007 26.8535 14.707C26.8472 14.7134 26.8413 14.7202 26.835 14.7266L26.376 15.1855C26.3687 15.1929 26.3609 15.1997 26.3535 15.207C26.346 15.2145 26.3386 15.2229 26.3311 15.2305L26.2861 15.2754C26.2786 15.283 26.2703 15.2902 26.2627 15.2979C26.2551 15.3054 26.2479 15.3137 26.2402 15.3213L26.0029 15.5586C25.995 15.5666 25.9865 15.574 25.9785 15.582L25.9541 15.6064C25.9459 15.6146 25.9379 15.6236 25.9297 15.6318L25.5488 16.0127C25.5402 16.0213 25.5311 16.0295 25.5225 16.0381L25.4434 16.1172C25.4345 16.126 25.4259 16.1357 25.417 16.1445L25.3906 16.1709C25.3817 16.1798 25.3722 16.1883 25.3633 16.1973C25.3544 16.2062 25.3459 16.2157 25.3369 16.2246C25.328 16.2335 25.3185 16.242 25.3096 16.251C25.3006 16.2599 25.2922 16.2694 25.2832 16.2783L25.1191 16.4424C25.1099 16.4516 25.1 16.4605 25.0908 16.4697C25.0816 16.4789 25.0727 16.4888 25.0635 16.498L24.8955 16.666C24.8862 16.6753 24.8765 16.6841 24.8672 16.6934L24.8389 16.7217C24.8294 16.7311 24.82 16.7415 24.8105 16.751L24.668 16.8936C24.6584 16.9031 24.6483 16.9123 24.6387 16.9219C24.6291 16.9314 24.6199 16.9416 24.6104 16.9512L24.5811 16.9805C24.5715 16.9901 24.5614 16.9992 24.5518 17.0088C24.5422 17.0184 24.533 17.0285 24.5234 17.0381L24.3477 17.2139C24.3378 17.2237 24.3272 17.2333 24.3174 17.2432C24.3076 17.253 24.2979 17.2636 24.2881 17.2734L23.7178 17.8438C23.7076 17.8539 23.6967 17.8639 23.6865 17.874C23.6764 17.8842 23.6664 17.8951 23.6562 17.9053L23.5342 18.0273C23.524 18.0376 23.5132 18.0474 23.5029 18.0576C23.4927 18.0678 23.4829 18.0786 23.4727 18.0889L23.4111 18.1504C23.4009 18.1606 23.3901 18.1704 23.3799 18.1807C23.3696 18.1909 23.3599 18.2017 23.3496 18.2119L23.2568 18.3047C23.2466 18.3149 23.2358 18.3247 23.2256 18.335C23.2154 18.3452 23.2055 18.356 23.1953 18.3662L23.1328 18.4287C23.1226 18.439 23.1118 18.4487 23.1016 18.459C23.0913 18.4692 23.0815 18.48 23.0713 18.4902L22.9463 18.6152C22.936 18.6255 22.9253 18.6353 22.915 18.6455L22.8838 18.6768C22.8735 18.687 22.8638 18.6978 22.8535 18.708L22.1035 19.458C22.0933 19.4683 22.0825 19.478 22.0723 19.4883L22.0098 19.5508C21.9995 19.561 21.9897 19.5718 21.9795 19.582L21.8545 19.707C21.8442 19.7173 21.8335 19.7271 21.8232 19.7373C21.813 19.7475 21.8032 19.7583 21.793 19.7686L21.5449 20.0166C21.5347 20.0269 21.5239 20.0366 21.5137 20.0469C21.5034 20.0571 21.4936 20.0679 21.4834 20.0781L21.3604 20.2012C21.3501 20.2114 21.3393 20.2212 21.3291 20.2314C21.3189 20.2417 21.309 20.2525 21.2988 20.2627L21.2686 20.293C21.2584 20.3032 21.2475 20.3131 21.2373 20.3232C21.2271 20.3334 21.2172 20.3443 21.207 20.3545L21.1162 20.4453C21.1061 20.4554 21.0951 20.4655 21.085 20.4756L20.9336 20.627C20.9237 20.6369 20.9142 20.6473 20.9043 20.6572L20.8438 20.7178C20.8338 20.7277 20.8234 20.7371 20.8135 20.7471C20.8036 20.757 20.7941 20.7674 20.7842 20.7773L20.5762 20.9854C20.5664 20.9952 20.5557 21.0048 20.5459 21.0146C20.5361 21.0245 20.5264 21.0351 20.5166 21.0449L20.3701 21.1914C20.3605 21.201 20.3504 21.2101 20.3408 21.2197C20.3312 21.2293 20.3221 21.2394 20.3125 21.249L20.2832 21.2783C20.2736 21.2879 20.2635 21.297 20.2539 21.3066C20.2443 21.3162 20.2352 21.3264 20.2256 21.3359C20.216 21.3455 20.2059 21.3547 20.1963 21.3643C20.1867 21.3738 20.1775 21.384 20.168 21.3936L20.1396 21.4219C20.1301 21.4314 20.1199 21.4407 20.1104 21.4502C20.1008 21.4597 20.0915 21.47 20.082 21.4795L19.9688 21.5928C19.9595 21.6021 19.9497 21.6109 19.9404 21.6201C19.9311 21.6294 19.9223 21.6392 19.9131 21.6484L19.8848 21.6768C19.8755 21.686 19.8657 21.6948 19.8564 21.7041C19.8472 21.7134 19.8384 21.7232 19.8291 21.7324C19.8198 21.7417 19.81 21.7505 19.8008 21.7598C19.7916 21.769 19.7826 21.7789 19.7734 21.7881L19.3164 22.2451C19.3078 22.2538 19.2986 22.2619 19.29 22.2705C19.2814 22.2792 19.2733 22.2883 19.2646 22.2969C19.256 22.3055 19.2469 22.3137 19.2383 22.3223C19.2297 22.3309 19.2215 22.3401 19.2129 22.3486L19.1621 22.3994C19.1536 22.4079 19.1442 22.4163 19.1357 22.4248L19.1104 22.4502C19.102 22.4585 19.0942 22.4673 19.0859 22.4756L19.0107 22.5508C19.0025 22.5591 18.9936 22.567 18.9854 22.5752C18.9771 22.5835 18.9692 22.5924 18.9609 22.6006L18.7676 22.7939C18.7597 22.8019 18.751 22.8095 18.7432 22.8174L18.6729 22.8877C18.6652 22.8954 18.658 22.9035 18.6504 22.9111L18.3818 23.1797C18.3746 23.1869 18.3665 23.194 18.3594 23.2012C18.3524 23.2082 18.3458 23.2157 18.3389 23.2227L18.1719 23.3896C18.1652 23.3963 18.158 23.4026 18.1514 23.4092C18.1447 23.4159 18.1385 23.4231 18.1318 23.4297L18.1123 23.4492C18.1057 23.4558 18.0984 23.4622 18.0918 23.4688L18.0527 23.5078C18.0464 23.5142 18.0405 23.521 18.0342 23.5273L17.9961 23.5654C17.9898 23.5717 17.9828 23.5778 17.9766 23.584C17.9703 23.5902 17.9642 23.5973 17.958 23.6035L17.9395 23.6221C17.9334 23.6281 17.9269 23.6337 17.9209 23.6396C17.9149 23.6457 17.9093 23.6522 17.9033 23.6582L17.7969 23.7646C17.7912 23.7704 17.785 23.7756 17.7793 23.7812C17.7736 23.7869 17.7683 23.7932 17.7627 23.7988L17.6807 23.8809C17.6753 23.8862 17.6693 23.8912 17.6641 23.8965C17.6588 23.9018 17.6537 23.9078 17.6484 23.9131L17.5283 24.0332C17.5236 24.038 17.5184 24.0422 17.5137 24.0469C17.509 24.0516 17.5047 24.0569 17.5 24.0615L17.3936 24.168C17.3895 24.1721 17.3849 24.1756 17.3809 24.1797C17.3768 24.1838 17.3732 24.1883 17.3691 24.1924C17.3651 24.1964 17.3604 24.2001 17.3564 24.2041L17.333 24.2275C17.3293 24.2313 17.326 24.2356 17.3223 24.2393L17.2998 24.2617C17.2961 24.2654 17.2917 24.2689 17.2881 24.2725L17.2773 24.2832C17.2739 24.2866 17.271 24.2906 17.2676 24.2939L17.2471 24.3145C17.2437 24.3178 17.2396 24.3209 17.2363 24.3242L17.2266 24.334C17.2234 24.3371 17.2208 24.3407 17.2178 24.3438L17.1992 24.3623C17.1962 24.3653 17.1924 24.3681 17.1895 24.3711C17.1867 24.3739 17.1844 24.3771 17.1816 24.3799L17.126 24.4355C17.1236 24.4379 17.1205 24.4401 17.1182 24.4424L17.1113 24.4492C17.1092 24.4514 17.1076 24.454 17.1055 24.4561L17.0928 24.4688C17.0907 24.4708 17.0879 24.4726 17.0859 24.4746L17.0801 24.4805C17.0783 24.4823 17.077 24.4846 17.0752 24.4863L17.0547 24.5068C17.0532 24.5083 17.0512 24.5093 17.0498 24.5107C17.0484 24.5122 17.0473 24.5142 17.0459 24.5156L17.0381 24.5234C17.0369 24.5246 17.0353 24.5253 17.0342 24.5264C17.033 24.5275 17.0323 24.5292 17.0312 24.5303L17.0225 24.5391C17.0216 24.5399 17.0203 24.5403 17.0195 24.541C17.0187 24.5418 17.0183 24.5432 17.0176 24.5439L17.0098 24.5518H17.0088V24.5527H17.0078V24.5537C16.5915 24.9698 16.045 25.1786 15.5 25.1787C14.9549 25.1787 14.4076 24.97 13.9912 24.5537L13.9902 24.5527L13.54 24.1025C13.253 23.8155 12.8432 23.4047 12.3496 22.9111C11.362 21.9235 10.0406 20.6031 8.70801 19.2705C6.04333 16.6058 3.33151 13.8938 3.14062 13.7031C2.93096 13.4937 2.74267 13.2536 2.60938 13.0713C2.54196 12.9791 2.48661 12.8989 2.44824 12.8418C2.42914 12.8133 2.41379 12.7905 2.40332 12.7744C2.39931 12.7682 2.3962 12.7629 2.39355 12.7588C1.58638 11.5754 1.11426 10.1446 1.11426 8.60449C1.11441 4.52621 4.41977 1.22086 8.49805 1.2207C10.5285 1.2207 12.3679 2.04095 13.7031 3.36719L13.7168 3.37891C13.7227 3.38441 13.7295 3.39185 13.7363 3.39844C13.7505 3.41211 13.77 3.43152 13.7939 3.45508C13.8424 3.50277 13.9115 3.5702 13.9932 3.65137C14.1568 3.81391 14.3744 4.03119 14.5918 4.24805C14.8093 4.46503 15.0265 4.68287 15.1895 4.8457C15.2709 4.92707 15.3392 4.99449 15.3867 5.04199C15.4105 5.06575 15.4296 5.08493 15.4424 5.09766C15.4486 5.10382 15.4538 5.10811 15.457 5.11133C15.4585 5.11278 15.4591 5.11441 15.46 5.11523L15.4609 5.11621L15.4619 5.11719C15.4833 5.13814 15.5167 5.13812 15.5381 5.11719L15.5391 5.11621L17.2803 3.38281C18.6159 2.04706 20.4624 1.2207 22.501 1.2207ZM22.501 4.6123C22.4706 4.6123 22.4463 4.63663 22.4463 4.66699C22.4465 4.69715 22.4708 4.7207 22.501 4.7207C24.6457 4.72077 26.3846 6.45982 26.3848 8.60449C26.3848 8.63485 26.4091 8.65918 26.4395 8.65918C26.4696 8.65897 26.4932 8.63472 26.4932 8.60449C26.493 6.39998 24.7055 4.61237 22.501 4.6123Z" fill="#EE2737" stroke="#F1F2F5" stroke-width="0.766349"/>
</svg>
