<svg class="logo" width="218" height="50" viewBox="0 0 218 50" fill="none">
    <path d="M0 11.7331H5.95058V8.92913C5.95058 4.05184 9.03292 1.43054 14.0082 1.43054H20.9885V6.98768H14.1135L13.6921 7.40709V11.7331H20.8015V17.554H13.6921V39.1805H5.95058V17.554H0V11.7331Z" fill="#6638B6"/>
    <path d="M30.103 11.7332V14.801H30.5244C31.5269 12.731 33.447 11.6283 36.8454 11.6283H40.6924V17.9194H36.8216C32.5566 17.9194 30.4496 20.0165 30.4496 24.8667V39.1773H22.7047V11.7332H30.1064H30.103Z" fill="#6638B6"/>
    <path d="M54.3845 11.1039C62.7853 11.1039 67.8421 16.0049 67.8421 24.4471V27.5656H47.6149C47.7202 31.2862 50.1433 34.1172 54.3301 34.1172C58.5169 34.1172 60.1515 32.0472 60.5729 30.3696H67.3153V31.1543C66.4454 34.9289 63.0232 39.8028 54.4626 39.8028C45.9021 39.8028 40.2132 35.0067 40.2132 25.4381C40.2132 15.8696 45.8749 11.1005 54.3811 11.1005L54.3845 11.1039ZM60.6001 22.323C60.5492 19.2282 58.5203 16.7152 54.2791 16.7152C50.0379 16.7152 48.0091 19.3094 47.693 22.323H60.6001Z" fill="#6638B6"/>
    <path d="M83.2232 11.1039C91.624 11.1039 96.6808 16.0049 96.6808 24.4471V27.5656H76.4536C76.5589 31.2862 78.982 34.1172 83.1688 34.1172C87.3556 34.1172 88.9902 32.0472 89.4116 30.3696H96.154V31.1543C95.284 34.9289 91.8619 39.8028 83.3013 39.8028C74.7408 39.8028 69.0519 35.0067 69.0519 25.4381C69.0519 15.8696 74.7136 11.1005 83.2198 11.1005L83.2232 11.1039ZM89.4388 22.323C89.3878 19.2282 87.359 16.7152 83.1178 16.7152C78.8766 16.7152 76.8478 19.3094 76.5317 22.323H89.4388Z" fill="#6638B6"/>
    <path d="M109.272 11.1547C117.2 11.1547 121.625 14.4558 122.097 19.4887V20.2768H115.066C114.883 17.5236 112.565 16.607 109.323 16.607C106.081 16.607 104.399 17.5777 104.399 19.2553C104.399 20.933 105.741 21.5113 107.664 21.8225L113.143 22.7154C118.726 23.632 122.468 25.9117 122.468 30.9209C122.468 35.9301 118.492 39.7792 110.036 39.7792C101.581 39.7792 97.024 35.9538 96.657 31.2084V30.4237H103.821C104.032 33.1499 106.692 34.2762 110.036 34.2762C113.38 34.2762 115.12 33.0958 115.12 31.3403C115.12 29.5849 113.778 28.9287 111.406 28.5364L105.928 27.6468C100.633 26.808 97.0784 24.3964 97.0784 19.4414C97.0784 14.4863 101.398 11.1581 109.272 11.1581V11.1547Z" fill="#6638B6"/>
    <path d="M128.418 11.733V4.75869H136.16V11.7296H143.562V17.5506H136.16V32.5173L136.581 32.9367H143.351V39.1737H136.476C131.497 39.1737 128.418 36.5524 128.418 31.6751V17.5472H122.624V11.7262H128.418V11.733Z" fill="#6638B6"/>
    <path d="M152.676 11.7334L159.391 30.5796H159.813L166.555 11.7334H174.429V12.5215L159.286 49.666H151.463V48.8813L155.517 39.3128L144.615 12.5248V11.7368H152.673L152.676 11.7334Z" fill="#6638B6"/>
    <path d="M183.255 1.43054V39.1772H175.51V1.43054H183.255Z" fill="#6638B6"/>
    <path d="M199.003 11.1039C207.404 11.1039 212.461 16.0049 212.461 24.4471V27.5656H192.233C192.339 31.2862 194.762 34.1172 198.949 34.1172C203.135 34.1172 204.77 32.0472 205.191 30.3696H211.934V31.1543C211.064 34.9289 207.642 39.8028 199.081 39.8028C190.521 39.8028 184.832 35.0067 184.832 25.4381C184.832 15.8696 190.493 11.1005 199 11.1005L199.003 11.1039ZM205.219 22.323C205.168 19.2282 203.139 16.7152 198.898 16.7152C194.656 16.7152 192.628 19.3094 192.311 22.323H205.219Z" fill="#6638B6"/>
    <path d="M218 4.88038C218 7.27167 216.114 9.14885 213.66 9.14885C211.207 9.14885 209.297 7.27167 209.297 4.88038C209.297 2.48908 211.234 0.666016 213.66 0.666016C216.087 0.666016 218 2.5432 218 4.88038ZM210.381 4.88038C210.381 6.75756 211.774 8.24916 213.687 8.24916C215.601 8.24916 216.916 6.75756 216.916 4.90743C216.916 3.05731 215.546 1.51498 213.66 1.51498C211.774 1.51498 210.381 3.03025 210.381 4.88376V4.88038ZM212.991 7.09241H212.009V2.87805C212.396 2.80025 212.94 2.74952 213.636 2.74952C214.438 2.74952 214.799 2.87805 215.108 3.05731C215.339 3.23657 215.523 3.57142 215.523 3.98406C215.523 4.44744 215.162 4.80597 214.646 4.96155V5.01229C215.06 5.16787 215.291 5.47566 215.421 6.04051C215.55 6.68315 215.628 6.94021 215.73 7.09579H214.67C214.54 6.94021 214.462 6.55462 214.333 6.06757C214.255 5.60419 213.997 5.39787 213.456 5.39787H212.991V7.09579V7.09241ZM213.018 4.70111H213.484C214.027 4.70111 214.466 4.52185 214.466 4.08553C214.466 3.69995 214.18 3.44289 213.562 3.44289C213.303 3.44289 213.123 3.46995 213.018 3.49363V4.70111Z" fill="#6638B6"/>
</svg>