<svg xmlns="http://www.w3.org/2000/svg" width="44" height="39" viewBox="0 0 44 39" fill="none">
    <path d="M32.2998 0.617188C38.3327 0.617188 43.1826 5.81174 43.1826 12.1699C43.1826 14.5695 42.491 16.7988 41.3086 18.6475C41.3096 18.6481 41.3096 18.6484 41.3096 18.6484L41.3086 18.6494L41.3076 18.6514C41.3065 18.6533 41.3048 18.6568 41.3027 18.6602C41.2987 18.6669 41.2926 18.6763 41.2852 18.6885C41.2699 18.7134 41.2479 18.7494 41.2197 18.7939C41.1635 18.883 41.0825 19.0081 40.9834 19.1523C40.7867 19.4384 40.5112 19.8102 40.208 20.1328C39.9235 20.4354 35.8555 24.7636 31.8584 29.0156C29.8599 31.1416 27.8786 33.2486 26.3975 34.8242C25.6569 35.612 25.0409 36.2676 24.6104 36.7256C24.3953 36.9544 24.2264 37.1344 24.1113 37.2568C24.0538 37.318 24.0092 37.3649 23.9795 37.3965C23.9647 37.4122 23.9538 37.4246 23.9463 37.4326L23.9346 37.4443C23.3494 38.0667 22.5764 38.3828 21.7998 38.3828C21.0232 38.3828 20.2502 38.0667 19.665 37.4443L19.6533 37.4326C19.6458 37.4246 19.6348 37.4121 19.6201 37.3965C19.5904 37.3649 19.5458 37.318 19.4883 37.2568C19.3732 37.1344 19.2043 36.9544 18.9893 36.7256C18.5588 36.2676 17.9427 35.612 17.2021 34.8242C15.7211 33.2486 13.7406 31.1416 11.7422 29.0156C7.74504 24.7634 3.67631 20.4353 3.3916 20.1328C3.08788 19.81 2.81288 19.4375 2.61621 19.1514C2.5172 19.0073 2.43608 18.883 2.37988 18.7939C2.35175 18.7494 2.32966 18.7134 2.31445 18.6885C2.30685 18.676 2.30097 18.666 2.29688 18.6592C2.29489 18.6559 2.2931 18.6532 2.29199 18.6514L2.29102 18.6494L2.29004 18.6484V18.6475C1.10784 16.7989 0.417013 14.5693 0.416992 12.1699C0.416992 5.81174 5.26692 0.617188 11.2998 0.617188C14.3049 0.617188 17.0217 1.91032 18.9883 3.99316L19.0039 4.00781C19.0114 4.01524 19.0204 4.02494 19.0303 4.03516C19.0508 4.05629 19.0803 4.08636 19.1162 4.12402C19.1886 4.19982 19.2915 4.30892 19.4141 4.43848C19.6594 4.69768 19.9856 5.04372 20.3115 5.38965C20.6376 5.73573 20.9636 6.08204 21.208 6.3418C21.3302 6.47164 21.4326 6.57949 21.5039 6.65527C21.5395 6.69317 21.5668 6.72384 21.5859 6.74414C21.5955 6.75426 21.6035 6.76136 21.6084 6.7666C21.6106 6.76897 21.612 6.77114 21.6133 6.77246L21.6152 6.77441C21.7205 6.8864 21.8801 6.8864 21.9854 6.77441L24.5967 4.00879C26.5632 1.91637 29.287 0.617188 32.2998 0.617188ZM32.2998 5.57227C32.1705 5.57227 32.0264 5.68966 32.0264 5.88672C32.0264 6.08382 32.1705 6.20215 32.2998 6.20215C35.4327 6.20215 37.9326 8.8967 37.9326 12.1699C37.9327 12.367 38.0768 12.4844 38.2061 12.4844C38.3353 12.4844 38.4794 12.367 38.4795 12.1699C38.4795 8.50389 35.69 5.57227 32.2998 5.57227Z" fill="#EE2737" stroke="#6638B6" stroke-width="0.766349"/>
</svg>