<svg width="35" height="35" viewBox="0 0 35 35" fill="none" xmlns="http://www.w3.org/2000/svg">
<mask id="path-1-inside-1_955_2679" fill="white">
<path d="M0 17.5C0 7.83502 7.83502 0 17.5 0C27.165 0 35 7.83502 35 17.5C35 27.165 27.165 35 17.5 35C7.83502 35 0 27.165 0 17.5Z"/>
</mask>
<path d="M0 17.5C0 7.83502 7.83502 0 17.5 0C27.165 0 35 7.83502 35 17.5C35 27.165 27.165 35 17.5 35C7.83502 35 0 27.165 0 17.5Z" fill="white"/>
<path d="M-0.78 17.48C-0.78 7.38423 7.40424 -0.8 17.5 -0.8C27.6068 -0.8 35.8 7.39319 35.8 17.5H34.2C34.2 8.27684 26.7232 0.8 17.5 0.8C8.2658 0.8 0.78 8.27684 0.78 17.5L-0.78 17.48ZM35.8 17.5C35.8 27.6068 27.6068 35.8 17.5 35.8C7.40424 35.8 -0.78 27.6158 -0.78 17.52L0.78 17.5C0.78 26.7232 8.2658 34.2 17.5 34.2C26.7232 34.2 34.2 26.7232 34.2 17.5H35.8ZM17.5 35.8C7.40424 35.8 -0.78 27.6158 -0.78 17.52V17.48C-0.78 7.38423 7.40424 -0.8 17.5 -0.8V0.8C8.2658 0.8 0.78 8.27684 0.78 17.5C0.78 26.7232 8.2658 34.2 17.5 34.2V35.8ZM17.5 -0.8C27.6068 -0.8 35.8 7.39319 35.8 17.5C35.8 27.6068 27.6068 35.8 17.5 35.8V34.2C26.7232 34.2 34.2 26.7232 34.2 17.5C34.2 8.27684 26.7232 0.8 17.5 0.8V-0.8Z" fill="#E3E3E3" mask="url(#path-1-inside-1_955_2679)"/>
<path d="M12.5 17.5H17.5H12.5ZM22.5 17.5H17.5H22.5ZM17.5 17.5V12.5V17.5ZM17.5 17.5V22.5V17.5Z" fill="black"/>
<path d="M12.5 17.5H17.5M17.5 17.5H22.5M17.5 17.5V12.5M17.5 17.5V22.5" stroke="black" stroke-linecap="round" stroke-linejoin="round"/>
</svg>
