<svg xmlns="http://www.w3.org/2000/svg" width="9" height="12" viewBox="0 0 9 12" fill="none">
<g clip-path="url(#clip0_2431_412)">
<path fill-rule="evenodd" clip-rule="evenodd" d="M4.61746 11.8728C4.61746 11.8728 4.44466 12.001 4.3174 12C4.19246 11.999 4.02382 11.8728 4.02382 11.8728L3.47982 11.2161C2.74695 10.331 1.8975 9.19822 1.2256 8.02335C0.573674 6.88355 0 5.55487 0 4.3174C0 1.8322 1.8322 0 4.3174 0C6.8026 0 8.6348 1.8322 8.6348 4.3174C8.6348 5.56135 8.04332 6.89057 7.38653 8.02335C6.7087 9.19228 5.85925 10.3213 5.1539 11.202L4.61746 11.8728ZM6.4761 4.3174C6.4761 4.88992 6.24867 5.439 5.84383 5.84383C5.439 6.24867 4.88992 6.4761 4.3174 6.4761C3.74488 6.4761 3.1958 6.24867 2.79097 5.84383C2.38613 5.439 2.1587 4.88992 2.1587 4.3174C2.1587 3.74488 2.38613 3.1958 2.79097 2.79097C3.1958 2.38613 3.74488 2.1587 4.3174 2.1587C4.88992 2.1587 5.439 2.38613 5.84383 2.79097C6.24867 3.1958 6.4761 3.74488 6.4761 4.3174Z" fill="black"/>
<path d="M4.31739 5.39674C4.03113 5.39674 3.75659 5.28302 3.55417 5.0806C3.35175 4.87819 3.23804 4.60365 3.23804 4.31739C3.23804 4.03113 3.35175 3.75659 3.55417 3.55417C3.75659 3.35175 4.03113 3.23804 4.31739 3.23804C4.60365 3.23804 4.87819 3.35175 5.0806 3.55417C5.28302 3.75659 5.39674 4.03113 5.39674 4.31739C5.39674 4.60365 5.28302 4.87819 5.0806 5.0806C4.87819 5.28302 4.60365 5.39674 4.31739 5.39674Z" fill="black"/>
</g>
<defs>
<clipPath id="clip0_2431_412">
<rect width="8.6348" height="12" fill="white"/>
</clipPath>
</defs>
</svg>