<svg width="14" height="15" viewBox="0 0 14 15" fill="none" xmlns="http://www.w3.org/2000/svg">
<g clip-path="url(#clip0_4689_2991)">
<rect y="0.264404" width="14" height="14" rx="7" fill="white"/>
<path d="M7 0.264404C5.61553 0.264404 4.26216 0.674947 3.11101 1.44412C1.95987 2.21329 1.06266 3.30654 0.532846 4.58562C0.00303298 5.8647 -0.13559 7.27217 0.134506 8.63004C0.404603 9.9879 1.07129 11.2352 2.05026 12.2142C3.02922 13.1931 4.2765 13.8598 5.63437 14.1299C6.99224 14.4 8.3997 14.2614 9.67879 13.7316C10.9579 13.2017 12.0511 12.3045 12.8203 11.1534C13.5895 10.0023 14 8.64887 14 7.2644C14 5.40789 13.2625 3.62741 11.9497 2.31466C10.637 1.0019 8.85652 0.264404 7 0.264404ZM6 10.0594L3.5 7.5594L4.295 6.7644L6 8.4694L9.705 4.7644L10.503 5.5574L6 10.0594Z" fill="#6638B6"/>
</g>
<defs>
<clipPath id="clip0_4689_2991">
<rect y="0.264404" width="14" height="14" rx="7" fill="white"/>
</clipPath>
</defs>
</svg>